<?xml version="1.0" standalone="no"?>
<!DOCTYPE svg PUBLIC "-//W3C//DTD SVG 20010904//EN"
 "http://www.w3.org/TR/2001/REC-SVG-20010904/DTD/svg10.dtd">
<svg version="1.0" xmlns="http://www.w3.org/2000/svg"
 width="128.000000pt" height="128.000000pt" viewBox="0 0 128.000000 128.000000"
 preserveAspectRatio="xMidYMid meet">
<metadata>
Created by potrace 1.11, written by Peter Selinger 2001-2013
</metadata>
<g transform="translate(0.000000,128.000000) scale(0.100000,-0.100000)"
fill="#000000" stroke="none">
<path d="M560 935 c0 -8 7 -15 15 -15 8 0 15 7 15 15 0 8 -7 15 -15 15 -8 0
-15 -7 -15 -15z"/>
<path d="M690 935 c0 -8 7 -15 15 -15 8 0 15 7 15 15 0 8 -7 15 -15 15 -8 0
-15 -7 -15 -15z"/>
<path d="M419 854 c-15 -19 -2 -46 24 -50 24 -3 42 33 26 52 -15 18 -33 18
-50 -2z"/>
<path d="M549 854 c-16 -19 -1 -49 26 -49 27 0 42 30 26 49 -8 9 -19 16 -26
16 -7 0 -18 -7 -26 -16z"/>
<path d="M679 854 c-9 -11 -10 -20 -3 -31 23 -36 72 -14 59 27 -8 24 -37 26
-56 4z"/>
<path d="M811 856 c-15 -17 1 -55 21 -52 51 7 50 66 -2 66 -4 0 -13 -6 -19
-14z"/>
<path d="M540 740 c-10 -10 -17 -27 -15 -37 2 -10 4 -21 4 -24 2 -10 45 -25
62 -22 9 2 21 14 26 26 23 50 -39 95 -77 57z"/>
<path d="M672 739 c-17 -17 -19 -26 -10 -49 5 -16 17 -30 26 -33 18 -3 61 12
63 22 0 3 2 14 4 23 8 43 -53 70 -83 37z"/>
<path d="M420 725 c-26 -31 18 -71 47 -43 12 12 13 20 4 37 -14 25 -34 27 -51
6z"/>
<path d="M811 721 c-13 -24 9 -57 33 -48 23 9 31 34 16 52 -17 20 -37 19 -49
-4z"/>
<path d="M330 705 c0 -8 7 -15 15 -15 8 0 15 7 15 15 0 8 -7 15 -15 15 -8 0
-15 -7 -15 -15z"/>
<path d="M920 705 c0 -8 7 -15 15 -15 8 0 15 7 15 15 0 8 -7 15 -15 15 -8 0
-15 -7 -15 -15z"/>
<path d="M547 615 c-26 -19 -29 -53 -7 -75 35 -35 92 -3 82 46 -5 29 -51 47
-75 29z"/>
<path d="M700 622 c-36 -11 -49 -32 -38 -63 5 -16 13 -29 16 -30 4 0 15 -2 25
-4 24 -4 56 28 52 52 -2 10 -4 20 -4 23 -2 11 -37 27 -51 22z"/>
<path d="M425 597 c-20 -16 -15 -44 11 -54 23 -9 51 23 38 44 -14 23 -27 26
-49 10z"/>
<path d="M813 598 c-13 -21 -12 -36 2 -48 19 -16 55 -3 55 19 0 34 -40 54 -57
29z"/>
<path d="M330 575 c0 -8 7 -15 15 -15 8 0 15 7 15 15 0 8 -7 15 -15 15 -8 0
-15 -7 -15 -15z"/>
<path d="M920 575 c0 -8 7 -15 15 -15 8 0 15 7 15 15 0 8 -7 15 -15 15 -8 0
-15 -7 -15 -15z"/>
<path d="M419 464 c-25 -30 20 -70 48 -41 11 11 12 20 5 33 -12 22 -38 26 -53
8z"/>
<path d="M549 464 c-26 -31 20 -69 49 -40 12 12 14 21 6 33 -13 21 -40 25 -55
7z"/>
<path d="M687 469 c-21 -12 -22 -32 -2 -49 19 -16 55 -3 55 20 0 25 -30 41
-53 29z"/>
<path d="M816 464 c-19 -19 -20 -26 -4 -42 31 -31 75 10 48 43 -16 19 -25 19
-44 -1z"/>
<path d="M560 345 c0 -8 7 -15 15 -15 8 0 15 7 15 15 0 8 -7 15 -15 15 -8 0
-15 -7 -15 -15z"/>
<path d="M690 345 c0 -8 7 -15 15 -15 8 0 15 7 15 15 0 8 -7 15 -15 15 -8 0
-15 -7 -15 -15z"/>
</g>
</svg>
